<svg id="Layer_1" data-name="Layer 1" xmlns="http://www.w3.org/2000/svg" viewBox="0 0 1080 1080"><defs><style>.cls-1,.cls-2,.cls-4,.cls-5,.cls-6{fill:none;stroke:#fff;}.cls-1,.cls-2,.cls-5,.cls-6{stroke-miterlimit:10;}.cls-1{stroke-width:25.48px;}.cls-2{stroke-width:22.94px;}.cls-3{fill:#fff;}.cls-4{stroke-miterlimit:10;stroke-width:10.9px;}.cls-5{stroke-width:21.52px;}.cls-6{stroke-width:19.26px;}</style></defs><title>detail-icon-w</title><rect class="cls-1" x="70.4" y="436.66" width="945.6" height="523.76"/><rect class="cls-2" x="70.4" y="535.75" width="945.6" height="424.67"/><polygon class="cls-3" points="107.2 532.92 203.46 532.92 245.93 436.66 149.67 436.66 107.2 532.92"/><polygon class="cls-3" points="277.07 535.75 373.33 535.75 415.8 439.49 319.54 439.49 277.07 535.75"/><polygon class="cls-3" points="446.94 541.41 543.2 541.41 585.66 445.15 489.41 445.15 446.94 541.41"/><polygon class="cls-3" points="619.64 535.75 715.9 535.75 758.37 439.49 662.11 439.49 619.64 535.75"/><polygon class="cls-3" points="795.17 535.75 891.43 535.75 933.9 439.49 837.64 439.49 795.17 535.75"/><polygon class="cls-3" points="967.87 527.25 1010.34 527.25 1010.34 430.99 967.87 527.25"/><polygon class="cls-3" points="74.71 333.03 170.87 310.27 235.46 393.9 139.3 416.66 74.71 333.03"/><polygon class="cls-3" points="250.06 291.52 346.22 268.76 410.81 352.39 314.65 375.15 250.06 291.52"/><polygon class="cls-3" points="419.75 251.36 515.91 228.59 580.5 312.22 484.35 334.98 419.75 251.36"/><polygon class="cls-3" points="592.27 210.52 688.43 187.76 753.02 271.39 656.87 294.15 592.27 210.52"/><polygon class="cls-3" points="767.62 169.01 863.78 146.25 928.37 229.88 832.22 252.64 767.62 169.01"/><polygon class="cls-3" points="940.14 128.18 982.56 118.13 1004.74 211.81 940.14 128.18"/><rect class="cls-4" x="40.71" y="228.9" width="970.73" height="93.43" transform="translate(-49.35 128.62) rotate(-13.32)"/><rect class="cls-5" x="70.4" y="683.68" width="945.6" height="135.9"/><rect class="cls-6" x="375.3" y="821.9" width="343.31" height="138.52"/></svg>