<?xml version='1.0' encoding='iso-8859-1'?>
<svg version="1.1" xmlns="http://www.w3.org/2000/svg" viewBox="0 0 137.144 137.144" xmlns:xlink="http://www.w3.org/1999/xlink" enable-background="new 0 0 137.144 137.144">
  <g>
    <g>
      <path d="M109.715,0H27.429C12.28,0,0,12.28,0,27.429v82.287c0,15.148,12.28,27.428,27.429,27.428h82.286    c15.149,0,27.429-12.28,27.429-27.428V27.429C137.144,12.28,124.864,0,109.715,0z M123.429,102.858    c0,11.362-9.21,20.572-20.571,20.572H34.286c-11.361,0-20.572-9.21-20.572-20.572V34.286c0-11.361,9.21-20.571,20.572-20.571    h68.572c11.361,0,20.571,9.21,20.571,20.571V102.858z"/>
    </g>
  </g>
  <g>
    <g>
      <path d="M34.286,96.001v13.715h68.572V96.001H34.286z M89.144,61.715H75.429V27.429H61.715v34.286H48.001l20.572,27.429    L89.144,61.715z"/>
    </g>
  </g>
</svg>
