<svg id="Layer_1" data-name="Layer 1" xmlns="http://www.w3.org/2000/svg" viewBox="0 0 1080 1080"><defs><style>.cls-1{fill:#fff;}</style></defs><title>gallary-icon-w</title><path class="cls-1" d="M26,254.88V825.12H1054V254.88ZM130.65,753H44.47V666.79h86.18Zm0-172.36H44.47V494.43h86.18Zm0-172.36H44.47V322.07h86.18ZM920.42,792.46H155.27V282.58H920.42Zm113.07-39H947.31V667.31h86.18Zm0-172.36H947.31V495h86.18Zm0-172.36H947.31V322.59h86.18Z"/><path class="cls-1" d="M176.68,773.24V471.74l65.95-69.38a29.47,29.47,0,0,1,44.84,2.45L568,773.24Z"/><path class="cls-1" d="M596.18,773.24,425.89,544.83,555,401a39.29,39.29,0,0,1,55.48-3c.62.56,1.23,1.13,1.81,1.73l291,296.69v76.79Z"/></svg>