<svg xmlns="http://www.w3.org/2000/svg" viewBox="0 0 100 100" width="500px" height="500px"><circle cx="77" cy="13" r="1" fill="#f1bc19"/><circle cx="50" cy="50" r="37" fill="#e4e4f9"/><circle cx="83" cy="15" r="4" fill="#f1bc19"/><circle cx="87" cy="24" r="2" fill="#8889b9"/><circle cx="81" cy="76" r="2" fill="#fbcd59"/><circle cx="15" cy="63" r="4" fill="#fbcd59"/><circle cx="25" cy="87" r="2" fill="#8889b9"/><circle cx="23.5" cy="67.5" r="2.5" fill="#fff"/><circle cx="77.5" cy="30.5" r="1.5" fill="#fff"/><g><polygon fill="#ee3e54" points="35.7,24.7 45.3,24.7 45.3,75.361 35.7,76.234"/><path fill="#472b29" d="M44.6,25.4v49.322l-8.2,0.745V25.4H44.6 M46,24H35v53l11-1V24L46,24z"/><polygon fill="#ee3e54" points="54.7,75.361 54.7,24.7 64.3,24.7 64.3,76.234"/><path fill="#472b29" d="M63.6,25.4v50.067l-8.2-0.745V25.4H63.6 M65,24H54v52l11,1V24L65,24z"/><polygon fill="#ee3e54" points="54.505,75.343 36.001,24.7 45.507,24.7 63.971,76.203"/><path fill="#472b29" d="M45.015,25.4l17.927,50.007l-7.931-0.721L37.002,25.4H45.015 M46,24H35l19,52l11,1L46,24L46,24z"/><path fill="#472b29" d="M61.5,36c-0.276,0-0.5-0.224-0.5-0.5v-8c0-0.276,0.224-0.5,0.5-0.5s0.5,0.224,0.5,0.5v8 C62,35.776,61.776,36,61.5,36z"/><path fill="#472b29" d="M38.5,48c-0.276,0-0.5-0.224-0.5-0.5v-8c0-0.276,0.224-0.5,0.5-0.5s0.5,0.224,0.5,0.5v8 C39,47.776,38.776,48,38.5,48z"/><g><path fill="#472b29" d="M38.5,74c-0.276,0-0.5-0.224-0.5-0.5v-16c0-0.276,0.224-0.5,0.5-0.5s0.5,0.224,0.5,0.5v16 C39,73.776,38.776,74,38.5,74z"/></g><g><path fill="#472b29" d="M38.5,55c-0.276,0-0.5-0.224-0.5-0.5v-4c0-0.276,0.224-0.5,0.5-0.5s0.5,0.224,0.5,0.5v4 C39,54.776,38.776,55,38.5,55z"/></g><g><path fill="#472b29" d="M61.5,59c-0.276,0-0.5-0.224-0.5-0.5v-20c0-0.276,0.224-0.5,0.5-0.5s0.5,0.224,0.5,0.5v20 C62,58.776,61.776,59,61.5,59z"/></g></g></svg>