<svg id="Layer_1" data-name="Layer 1" xmlns="http://www.w3.org/2000/svg" viewBox="0 0 1080 1080"><defs><style>.cls-1{fill:#fb3209;}.cls-1,.cls-2{fill-rule:evenodd;}.cls-2{fill:#fff;}</style></defs><title>icons-rotten</title><path class="cls-1" d="M295.6,302.13h459A61.44,61.44,0,0,1,816,363.57V761a61.44,61.44,0,0,1-61.44,61.44H357A61.44,61.44,0,0,1,295.6,761V302.13"/><path class="cls-2" d="M540,402C666.49,382.69,759.45,457.52,763.93,579c0,113.54-112.23,191-217.95,191-106.66,0-195-71.33-195-182-.85-62.7,31.22-111.87,80.07-144.39a295.73,295.73,0,0,0-52.38,4.7c-6.47,1.72-7,.23-1.18-9.81,19.23-27.87,48.68-38.5,78.35-32.8l-31.66-27.59,27.14-22.53,28.72,42.66c11.81-27.92,49-48.23,74.92-27.6,2.35,1.86,2.94,2.9,2.94,3.8,0,2.94-2.94,1.58-7.33,3.94-8.82,4.66-12.31,13-12.4,23.7L540,402"/><path class="cls-1" d="M704.27,573.37H657V701.88H603.48V573.37h-47V520.89H704.27v52.48"/><path class="cls-1" d="M488.31,601.55h-8.55V660H424V478.23h80.34c45.14,0,72.74,24.7,72.74,62.93,0,23.16-7.6,42.52-29.36,54l38,64.83H522.51Zm-8.55-42.84h16c14.88,0,23.61-7.42,23.61-18.82,0-11.17-9.55-18.86-23.61-18.86h-16v37.68"/></svg>