<svg id="Layer_1" data-name="Layer 1" xmlns="http://www.w3.org/2000/svg" viewBox="0 0 1080 318"><defs><style>.cls-1,.cls-9{font-size:163.78px;font-family:TitilliumWeb-Black, Titillium Web;font-weight:800;}.cls-1{fill:#e6af2e;}.cls-2{letter-spacing:-0.01em;}.cls-3{letter-spacing:-0.01em;}.cls-4{fill:#dd9903;}.cls-5{fill:#222831;}.cls-5,.cls-6{stroke:#fff;stroke-miterlimit:10;stroke-width:0.86px;}.cls-6{fill:#4f555e;}.cls-7{fill:#eee;}.cls-8{fill:#ffb400;}.cls-9{fill:#fff;}.cls-10{letter-spacing:-0.03em;}</style></defs><title>movieblogLOGO</title><text class="cls-1" transform="translate(423.59 154.4)">YEL<tspan class="cls-2" x="266.63" y="0">L</tspan><tspan class="cls-3" x="344.92" y="0">O</tspan><tspan x="453.34" y="0">W </tspan></text><rect class="cls-4" x="19.18" y="39.54" width="236.51" height="238.42" rx="5.93"/><rect class="cls-5" x="65.76" y="61.78" width="320.42" height="194.7"/><rect class="cls-6" x="248.96" y="93.97" width="130.31" height="130.31"/><rect class="cls-6" x="112.52" y="93.97" width="130.31" height="130.31"/><rect class="cls-7" x="357.81" y="229.65" width="21.46" height="21.46"/><rect class="cls-7" x="357.81" y="66.38" width="21.46" height="21.46"/><rect class="cls-7" x="314.89" y="229.65" width="21.46" height="21.46"/><rect class="cls-7" x="314.89" y="66.38" width="21.46" height="21.46"/><rect class="cls-7" x="271.96" y="229.65" width="21.46" height="21.46"/><rect class="cls-7" x="271.96" y="66.38" width="21.46" height="21.46"/><rect class="cls-7" x="229.03" y="229.65" width="21.46" height="21.46"/><rect class="cls-7" x="229.03" y="66.38" width="21.46" height="21.46"/><rect class="cls-7" x="186.11" y="66.38" width="21.46" height="21.46"/><path class="cls-8" d="M250,277.18h-227A3.94,3.94,0,0,1,19,273.24v-229a3.94,3.94,0,0,1,3.94-3.94H158.51l95.12,231.43A4,4,0,0,1,250,277.18Z"/><text class="cls-9" transform="translate(423.59 283.19)">B<tspan class="cls-10" x="99.41" y="0">O</tspan><tspan x="203.41" y="0">X</tspan></text></svg>