<svg id="Layer_1" data-name="Layer 1" xmlns="http://www.w3.org/2000/svg" viewBox="0 0 1080 1080"><defs><style>.cls-1{fill:#676f7a;}.cls-2{fill:none;stroke:#676f7a;stroke-miterlimit:10;stroke-width:13.76px;}</style></defs><title>review-icon</title><path class="cls-1" d="M553.73,361.08,591,475.65a13.32,13.32,0,0,0,12.67,9.2H724.09c12.91,0,18.27,16.52,7.83,24.1l-97.46,70.81a13.34,13.34,0,0,0-4.84,14.9l37.23,114.57c4,12.27-10.06,22.48-20.5,14.89l-97.46-70.8a13.3,13.3,0,0,0-15.66,0l-97.46,70.8c-10.44,7.59-24.49-2.62-20.5-14.89l37.22-114.57a13.32,13.32,0,0,0-4.84-14.9L350.19,509c-10.44-7.58-5.07-24.1,7.83-24.1H478.49a13.31,13.31,0,0,0,12.67-9.2l37.23-114.57C532.37,348.8,549.74,348.8,553.73,361.08Z"/><path class="cls-2" d="M161.54,459.3l37.25,85.61a3.94,3.94,0,0,0,4,2.35l92.93-9a4,4,0,0,1,3,6.89l-69.91,61.88a4,4,0,0,0-1,4.53l37.25,85.61a3.94,3.94,0,0,1-5.62,5L179,654.82a4,4,0,0,0-4.62.44l-69.9,61.88A4,4,0,0,1,98,713.33l20.18-91.15a4,4,0,0,0-1.85-4.26L35.86,570.56a4,4,0,0,1,1.62-7.33l92.93-9a3.93,3.93,0,0,0,3.47-3.07L154.06,460A4,4,0,0,1,161.54,459.3Z"/><path class="cls-2" d="M931.81,458.87l16,92a4,4,0,0,0,3.33,3.22l92.45,13.2a3.94,3.94,0,0,1,1.29,7.38l-82.55,43.67a4,4,0,0,0-2,4.16l16,92a3.94,3.94,0,0,1-6.62,3.5l-67.05-65a3.93,3.93,0,0,0-4.58-.66L815.52,696a3.94,3.94,0,0,1-5.38-5.21L851.26,607a4,4,0,0,0-.79-4.56l-67.05-65a3.94,3.94,0,0,1,3.3-6.73l92.46,13.19a3.93,3.93,0,0,0,4.09-2.16l41.12-83.86A3.94,3.94,0,0,1,931.81,458.87Z"/></svg>